<svg width="181" height="240" viewBox="0 0 181 240" fill="none" xmlns="http://www.w3.org/2000/svg">
<path d="M23.2 190.4L21.7975 191.826L21.8093 191.837L21.8213 191.849L23.2 190.4ZM23.2 70.2L24.5781 71.6494L24.5787 71.6488L23.2 70.2ZM90 70.2L88.6213 71.6488L88.6332 71.6602L88.6454 71.6714L90 70.2ZM90 190.4L91.3787 191.849L91.3793 191.848L90 190.4ZM73.2 176L74.5908 177.437L74.6026 177.426L74.6142 177.414L73.2 176ZM73.2 84.6L71.7858 86.0142L71.7974 86.0258L71.8092 86.0372L73.2 84.6ZM40.2 84.6L41.6142 86.0142L41.6142 86.0142L40.2 84.6ZM40.2 176L38.7628 177.391L38.7856 177.414L38.8092 177.437L40.2 176ZM56.6 200.2C42.9905 200.2 32.3932 196.388 24.5787 188.951L21.8213 191.849C30.5401 200.146 42.2095 204.2 56.6 204.2V200.2ZM24.6025 188.974C16.9199 181.417 13 171.235 13 158.2H9C9 172.098 13.2135 183.383 21.7975 191.826L24.6025 188.974ZM13 158.2V101.8H9V158.2H13ZM13 101.8C13 88.9031 16.916 78.9347 24.5781 71.6494L21.8219 68.7506C13.2173 76.932 9 88.0303 9 101.8H13ZM24.5787 71.6488C32.3932 64.2124 42.9905 60.4 56.6 60.4V56.4C42.2095 56.4 30.5401 60.4542 21.8213 68.7512L24.5787 71.6488ZM56.6 60.4C70.2095 60.4 80.8068 64.2124 88.6213 71.6488L91.3787 68.7512C82.6599 60.4542 70.9905 56.4 56.6 56.4V60.4ZM88.6454 71.6714C96.5642 78.9617 100.6 88.9232 100.6 101.8H104.6C104.6 88.0102 100.236 76.9049 91.3546 68.7286L88.6454 71.6714ZM100.6 101.8V158.2H104.6V101.8H100.6ZM100.6 158.2C100.6 171.215 96.5598 181.391 88.6207 188.952L91.3793 191.848C100.24 183.409 104.6 172.118 104.6 158.2H100.6ZM88.6213 188.951C80.8068 196.388 70.2095 200.2 56.6 200.2V204.2C70.9905 204.2 82.6599 200.146 91.3787 191.849L88.6213 188.951ZM56.6 184C63.939 184 70.0103 181.87 74.5908 177.437L71.8092 174.563C68.1231 178.13 63.1276 180 56.6 180V184ZM74.6142 177.414C79.1915 172.837 81.4 166.758 81.4 159.4H77.4C77.4 165.909 75.4752 170.896 71.7858 174.586L74.6142 177.414ZM81.4 159.4V101H77.4V159.4H81.4ZM81.4 101C81.4 93.6444 79.1918 87.6153 74.5908 83.1628L71.8092 86.0372C75.4749 89.5847 77.4 94.4889 77.4 101H81.4ZM74.6142 83.1858C70.0369 78.6085 63.9577 76.4 56.6 76.4V80.4C63.109 80.4 68.0964 82.3248 71.7858 86.0142L74.6142 83.1858ZM56.6 76.4C49.3632 76.4 43.3556 78.616 38.7858 83.1858L41.6142 86.0142C45.3111 82.3173 50.2368 80.4 56.6 80.4V76.4ZM38.7858 83.1858C34.3294 87.6421 32.2 93.6635 32.2 101H36.2C36.2 94.4698 38.0706 89.5578 41.6142 86.0142L38.7858 83.1858ZM32.2 101V159.4H36.2V101H32.2ZM32.2 159.4C32.2 166.739 34.33 172.81 38.7628 177.391L41.6372 174.609C38.07 170.923 36.2 165.928 36.2 159.4H32.2ZM38.8092 177.437C43.3824 181.863 49.3821 184 56.6 184V180C50.2179 180 45.2843 178.137 41.5908 174.563L38.8092 177.437ZM142.352 60.6L141.649 58.7273L141.551 58.7642L141.457 58.8111L142.352 60.6ZM166.152 60.8L164.552 62L164.723 62.2286L164.952 62.4L166.152 60.8ZM166.152 199.4L164.737 197.986L164.737 197.986L166.152 199.4ZM144.352 199.4L142.752 200.6L142.923 200.829L143.152 201L144.352 199.4ZM143.352 83.4L141.937 84.8142L142.167 85.0437L142.457 85.1889L143.352 83.4ZM142.552 83.2L143.144 85.1103L143.3 85.0619L143.446 84.9888L142.552 83.2ZM122.552 89.4L121.959 87.4897L121.803 87.5381L121.657 87.6111L122.552 89.4ZM120.152 89L118.487 90.1094L118.597 90.2742L118.737 90.4142L120.152 89ZM119.752 87.4H121.752V87.3546L121.75 87.3092L119.752 87.4ZM119.152 74.2H117.152V74.2454L117.154 74.2908L119.152 74.2ZM120.752 71.4L121.646 73.1889L121.646 73.1889L120.752 71.4ZM143.054 62.4727C143.944 62.1389 144.704 62 145.352 62V58C144.132 58 142.893 58.2611 141.649 58.7273L143.054 62.4727ZM145.352 62H164.552V58H145.352V62ZM164.552 62C164.585 62 164.597 62.0032 164.593 62.0024C164.591 62.002 164.586 62.0008 164.58 61.9985C164.573 61.9961 164.565 61.9929 164.557 61.9888C164.549 61.9848 164.542 61.9806 164.536 61.9766C164.53 61.9726 164.526 61.9697 164.525 61.9685C164.522 61.9659 164.532 61.9736 164.552 62L167.752 59.6C166.974 58.563 165.848 58 164.552 58V62ZM164.952 62.4C164.978 62.4198 164.986 62.4296 164.983 62.4266C164.982 62.4252 164.979 62.4216 164.975 62.4156C164.971 62.4097 164.967 62.4025 164.963 62.3944C164.959 62.3863 164.955 62.3786 164.953 62.3719C164.951 62.3652 164.95 62.3606 164.949 62.3589C164.948 62.355 164.952 62.3671 164.952 62.4H168.952C168.952 61.1038 168.389 59.9777 167.352 59.2L164.952 62.4ZM164.952 62.4V197.6H168.952V62.4H164.952ZM164.952 197.6C164.952 197.665 164.949 197.774 164.737 197.986L167.566 200.814C168.42 199.96 168.952 198.868 168.952 197.6H164.952ZM164.737 197.986C164.736 197.987 164.739 197.984 164.745 197.98C164.751 197.976 164.753 197.976 164.749 197.977C164.742 197.98 164.685 198 164.552 198V202C165.647 202 166.724 201.656 167.566 200.814L164.737 197.986ZM164.552 198H146.152V202H164.552V198ZM146.152 198C145.918 198 145.739 197.94 145.552 197.8L143.152 201C144.031 201.66 145.052 202 146.152 202V198ZM145.952 198.2C145.811 198.013 145.752 197.834 145.752 197.6H141.752C141.752 198.699 142.092 199.72 142.752 200.6L145.952 198.2ZM145.752 197.6V84H141.752V197.6H145.752ZM145.752 84C145.752 83.5167 145.625 83.0046 145.316 82.5406C145.015 82.0891 144.617 81.7964 144.246 81.6111L142.457 85.1889C142.353 85.1369 142.155 85.0109 141.987 84.7594C141.811 84.4954 141.752 84.2166 141.752 84H145.752ZM144.766 81.9858C144.468 81.6877 144.029 81.3578 143.437 81.2097C142.8 81.0504 142.179 81.1504 141.657 81.4111L143.446 84.9888C143.191 85.1162 142.837 85.1829 142.466 85.0903C142.141 85.0088 141.969 84.8456 141.937 84.8142L144.766 81.9858ZM141.959 81.2897L121.959 87.4897L123.144 91.3103L143.144 85.1103L141.959 81.2897ZM121.657 87.6111C121.703 87.5881 121.726 87.5856 121.709 87.5888C121.692 87.5923 121.642 87.6 121.552 87.6V91.6C122.161 91.6 122.823 91.5001 123.446 91.1889L121.657 87.6111ZM121.552 87.6C121.544 87.6 121.546 87.5993 121.556 87.6013C121.561 87.6023 121.566 87.6036 121.572 87.6055C121.578 87.6074 121.584 87.6095 121.589 87.6117C121.595 87.6139 121.598 87.6159 121.601 87.6173C121.603 87.6187 121.604 87.6191 121.602 87.6181C121.6 87.6162 121.587 87.6071 121.566 87.5858L118.737 90.4142C119.487 91.164 120.453 91.6 121.552 91.6V87.6ZM121.816 87.8906C121.838 87.9235 121.752 87.8194 121.752 87.4H117.752C117.752 88.3139 117.932 89.2765 118.487 90.1094L121.816 87.8906ZM121.75 87.3092L121.15 74.1092L117.154 74.2908L117.754 87.4908L121.75 87.3092ZM121.152 74.2C121.152 73.7986 121.231 73.5922 121.288 73.4923C121.338 73.4054 121.426 73.299 121.646 73.1889L119.857 69.6111C119.011 70.0343 118.299 70.6612 117.815 71.5077C117.339 72.3411 117.152 73.2681 117.152 74.2H121.152ZM121.646 73.1889L143.246 62.3888L141.457 58.8111L119.857 69.6111L121.646 73.1889Z" fill="#B4977B"/>
</svg>
