<svg width="224" height="240" viewBox="0 0 224 240" fill="none" xmlns="http://www.w3.org/2000/svg">
<path d="M23.2 190.4L21.7975 191.826L21.8093 191.837L21.8213 191.849L23.2 190.4ZM23.2 70.2L24.5781 71.6494L24.5787 71.6488L23.2 70.2ZM90 70.2L88.6213 71.6488L88.6332 71.6602L88.6454 71.6714L90 70.2ZM90 190.4L91.3787 191.849L91.3793 191.848L90 190.4ZM73.2 176L74.5909 177.437L74.6026 177.426L74.6142 177.414L73.2 176ZM73.2 84.6L71.7858 86.0142L71.7974 86.0258L71.8092 86.0372L73.2 84.6ZM40.2 84.6L41.6142 86.0142L41.6142 86.0142L40.2 84.6ZM40.2 176L38.7628 177.391L38.7856 177.414L38.8092 177.437L40.2 176ZM56.6 200.2C42.9905 200.2 32.3932 196.388 24.5787 188.951L21.8213 191.849C30.5401 200.146 42.2095 204.2 56.6 204.2V200.2ZM24.6025 188.974C16.9199 181.417 13 171.235 13 158.2H9C9 172.098 13.2135 183.383 21.7975 191.826L24.6025 188.974ZM13 158.2V101.8H9V158.2H13ZM13 101.8C13 88.9031 16.916 78.9347 24.5781 71.6494L21.8219 68.7506C13.2173 76.932 9 88.0303 9 101.8H13ZM24.5787 71.6488C32.3932 64.2124 42.9905 60.4 56.6 60.4V56.4C42.2095 56.4 30.5401 60.4542 21.8213 68.7512L24.5787 71.6488ZM56.6 60.4C70.2095 60.4 80.8068 64.2124 88.6213 71.6488L91.3787 68.7512C82.6599 60.4542 70.9905 56.4 56.6 56.4V60.4ZM88.6454 71.6714C96.5642 78.9617 100.6 88.9232 100.6 101.8H104.6C104.6 88.0102 100.236 76.905 91.3546 68.7286L88.6454 71.6714ZM100.6 101.8V158.2H104.6V101.8H100.6ZM100.6 158.2C100.6 171.215 96.5598 181.391 88.6207 188.952L91.3793 191.848C100.24 183.409 104.6 172.118 104.6 158.2H100.6ZM88.6213 188.951C80.8068 196.388 70.2095 200.2 56.6 200.2V204.2C70.9905 204.2 82.6599 200.146 91.3787 191.849L88.6213 188.951ZM56.6 184C63.939 184 70.0103 181.87 74.5909 177.437L71.8092 174.563C68.1231 178.13 63.1276 180 56.6 180V184ZM74.6142 177.414C79.1915 172.837 81.4 166.758 81.4 159.4H77.4C77.4 165.909 75.4752 170.896 71.7858 174.586L74.6142 177.414ZM81.4 159.4V101H77.4V159.4H81.4ZM81.4 101C81.4 93.6444 79.1918 87.6153 74.5909 83.1628L71.8092 86.0372C75.4749 89.5847 77.4 94.4889 77.4 101H81.4ZM74.6142 83.1858C70.0369 78.6085 63.9577 76.4 56.6 76.4V80.4C63.109 80.4 68.0964 82.3248 71.7858 86.0142L74.6142 83.1858ZM56.6 76.4C49.3632 76.4 43.3556 78.616 38.7858 83.1858L41.6142 86.0142C45.3111 82.3173 50.2368 80.4 56.6 80.4V76.4ZM38.7858 83.1858C34.3294 87.6422 32.2 93.6635 32.2 101H36.2C36.2 94.4698 38.0706 89.5578 41.6142 86.0142L38.7858 83.1858ZM32.2 101V159.4H36.2V101H32.2ZM32.2 159.4C32.2 166.739 34.33 172.81 38.7628 177.391L41.6372 174.609C38.07 170.923 36.2 165.928 36.2 159.4H32.2ZM38.8092 177.437C43.3824 181.863 49.3821 184 56.6 184V180C50.2179 180 45.2843 178.137 41.5908 174.563L38.8092 177.437ZM154.672 178.8L156.086 180.214L156.121 180.179L156.155 180.142L154.672 178.8ZM154.272 179.6H152.272V180.072L152.483 180.494L154.272 179.6ZM213.672 180.8L212.072 182L212.243 182.229L212.472 182.4L213.672 180.8ZM213.672 199.4L212.258 197.986V197.986L213.672 199.4ZM124.272 199.4L122.672 200.6L122.843 200.829L123.072 201L124.272 199.4ZM124.872 180.2L126.286 181.614L126.309 181.592L126.33 181.568L124.872 180.2ZM160.072 140.4L158.551 139.101L158.546 139.107L160.072 140.4ZM169.472 129.4L167.955 128.096L167.951 128.101L169.472 129.4ZM182.072 83.6L180.737 85.0891L182.072 83.6ZM152.072 83.6L150.737 82.1109L150.724 82.1225L150.711 82.1344L152.072 83.6ZM145.672 104.4L147.086 105.814V105.814L145.672 104.4ZM123.672 104.4L122.072 105.6L122.243 105.829L122.472 106L123.672 104.4ZM123.072 94L121.073 93.926L121.072 93.963V94H123.072ZM129.272 75.2L130.891 76.3739L129.272 75.2ZM144.872 62.8L144.066 60.9694L144.06 60.9724L144.053 60.9755L144.872 62.8ZM190.472 63.4L189.577 65.1889L190.472 63.4ZM205.872 77.2L204.167 78.246L204.173 78.2548L204.178 78.2635L205.872 77.2ZM193.872 134.4L192.32 133.138L192.315 133.144L192.31 133.151L193.872 134.4ZM162.272 170.4L160.798 169.049L160.789 169.058L162.272 170.4ZM153.258 177.386C152.773 177.87 152.272 178.616 152.272 179.6H156.272C156.272 180.051 156.037 180.263 156.086 180.214L153.258 177.386ZM152.483 180.494C153.072 181.672 154.216 182 155.072 182V178C155.081 178 155.244 178 155.466 178.111C155.72 178.238 155.934 178.452 156.061 178.706L152.483 180.494ZM155.072 182H212.072V178H155.072V182ZM212.072 182C212.105 182 212.117 182.003 212.113 182.002C212.111 182.002 212.107 182.001 212.1 181.998C212.093 181.996 212.086 181.993 212.077 181.989C212.069 181.985 212.062 181.981 212.056 181.977C212.05 181.973 212.047 181.97 212.045 181.969C212.042 181.966 212.052 181.974 212.072 182L215.272 179.6C214.494 178.563 213.368 178 212.072 178V182ZM212.472 182.4C212.498 182.42 212.506 182.43 212.503 182.427C212.502 182.425 212.499 182.422 212.495 182.416C212.491 182.41 212.487 182.403 212.483 182.394C212.479 182.386 212.476 182.379 212.473 182.372C212.471 182.365 212.47 182.361 212.469 182.359C212.469 182.355 212.472 182.367 212.472 182.4H216.472C216.472 181.104 215.909 179.978 214.872 179.2L212.472 182.4ZM212.472 182.4V197.6H216.472V182.4H212.472ZM212.472 197.6C212.472 197.665 212.47 197.774 212.258 197.986L215.086 200.814C215.941 199.96 216.472 198.868 216.472 197.6H212.472ZM212.258 197.986C212.257 197.987 212.26 197.984 212.265 197.98C212.271 197.976 212.274 197.976 212.27 197.977C212.262 197.98 212.205 198 212.072 198V202C213.167 202 214.245 201.656 215.086 200.814L212.258 197.986ZM212.072 198H126.072V202H212.072V198ZM126.072 198C125.838 198 125.659 197.94 125.472 197.8L123.072 201C123.951 201.66 124.972 202 126.072 202V198ZM125.872 198.2C125.732 198.013 125.672 197.834 125.672 197.6H121.672C121.672 198.699 122.012 199.72 122.672 200.6L125.872 198.2ZM125.672 197.6V183.2H121.672V197.6H125.672ZM125.672 183.2C125.672 182.495 125.886 182.015 126.286 181.614L123.458 178.786C122.258 179.985 121.672 181.505 121.672 183.2H125.672ZM126.33 181.568C136.494 170.736 148.25 157.443 161.598 141.693L158.546 139.107C145.227 154.824 133.517 168.063 123.413 178.832L126.33 181.568ZM161.592 141.699L170.992 130.699L167.951 128.101L158.551 139.101L161.592 141.699ZM170.988 130.704C177.168 123.517 181.857 117.142 185.011 111.588C188.144 106.07 189.872 101.176 189.872 97H185.872C185.872 100.157 184.533 104.33 181.533 109.612C178.554 114.858 174.043 121.016 167.955 128.096L170.988 130.704ZM189.872 97C189.872 90.9989 187.721 85.9789 183.407 82.1109L180.737 85.0891C184.156 88.1544 185.872 92.0677 185.872 97H189.872ZM183.407 82.1109C179.109 78.2572 173.604 76.4 167.072 76.4V80.4C172.807 80.4 177.302 82.0094 180.737 85.0891L183.407 82.1109ZM167.072 76.4C160.54 76.4 155.035 78.2572 150.737 82.1109L153.407 85.0891C156.842 82.0094 161.337 80.4 167.072 80.4V76.4ZM150.711 82.1344C146.517 86.0289 144.472 91.1875 144.472 97.4H148.472C148.472 92.1458 150.16 88.1044 153.433 85.0656L150.711 82.1344ZM144.472 97.4V102.6H148.472V97.4H144.472ZM144.472 102.6C144.472 102.665 144.47 102.774 144.258 102.986L147.086 105.814C147.941 104.959 148.472 103.868 148.472 102.6H144.472ZM144.258 102.986C144.257 102.987 144.26 102.984 144.265 102.98C144.271 102.976 144.274 102.976 144.27 102.977C144.262 102.98 144.205 103 144.072 103V107C145.167 107 146.245 106.656 147.086 105.814L144.258 102.986ZM144.072 103H125.472V107H144.072V103ZM125.472 103C125.238 103 125.059 102.94 124.872 102.8L122.472 106C123.351 106.66 124.372 107 125.472 107V103ZM125.272 103.2C125.132 103.013 125.072 102.834 125.072 102.6H121.072C121.072 103.699 121.412 104.72 122.072 105.6L125.272 103.2ZM125.072 102.6V94H121.072V102.6H125.072ZM125.071 94.074C125.324 87.2314 127.279 81.3563 130.891 76.3739L127.653 74.0261C123.532 79.7103 121.353 86.3686 121.073 93.926L125.071 94.074ZM130.891 76.3739C134.535 71.348 139.448 67.4275 145.691 64.6245L144.053 60.9755C137.229 64.0391 131.742 68.3853 127.653 74.0261L130.891 76.3739ZM145.677 64.6306C152.062 61.8214 159.183 60.4 167.072 60.4V56.4C158.694 56.4 151.015 57.912 144.066 60.9694L145.677 64.6306ZM167.072 60.4C175.756 60.4 183.238 62.0193 189.577 65.1889L191.366 61.6111C184.372 58.114 176.255 56.4 167.072 56.4V60.4ZM189.577 65.1889C195.939 68.3695 200.779 72.7241 204.167 78.246L207.577 76.154C203.765 69.9425 198.338 65.0972 191.366 61.6111L189.577 65.1889ZM204.178 78.2635C207.565 83.6577 209.272 89.7513 209.272 96.6H213.272C213.272 89.0487 211.379 82.209 207.566 76.1365L204.178 78.2635ZM209.272 96.6C209.272 106.851 203.811 119.006 192.32 133.138L195.424 135.662C207.133 121.261 213.272 108.215 213.272 96.6H209.272ZM192.31 133.151C185.955 141.095 175.46 153.054 160.798 169.049L163.746 171.751C178.417 155.746 188.989 143.705 195.434 135.649L192.31 133.151ZM160.789 169.058L153.189 177.458L156.155 180.142L163.755 171.742L160.789 169.058Z" fill="#B4977B"/>
</svg>
