<svg width="220" height="240" viewBox="0 0 220 240" fill="none" xmlns="http://www.w3.org/2000/svg">
<path d="M23.2 190.4L21.7975 191.826L21.8093 191.837L21.8213 191.849L23.2 190.4ZM23.2 70.2L24.5781 71.6494L24.5787 71.6488L23.2 70.2ZM90 70.2L88.6213 71.6488L88.6332 71.6602L88.6454 71.6714L90 70.2ZM90 190.4L91.3787 191.849L91.3793 191.848L90 190.4ZM73.2 176L74.5909 177.437L74.6026 177.426L74.6142 177.414L73.2 176ZM73.2 84.6L71.7858 86.0142L71.7974 86.0258L71.8092 86.0372L73.2 84.6ZM40.2 84.6L41.6142 86.0142L41.6142 86.0142L40.2 84.6ZM40.2 176L38.7628 177.391L38.7856 177.414L38.8092 177.437L40.2 176ZM56.6 200.2C42.9905 200.2 32.3932 196.388 24.5787 188.951L21.8213 191.849C30.5401 200.146 42.2095 204.2 56.6 204.2V200.2ZM24.6025 188.974C16.9199 181.417 13 171.235 13 158.2H9C9 172.098 13.2135 183.383 21.7975 191.826L24.6025 188.974ZM13 158.2V101.8H9V158.2H13ZM13 101.8C13 88.9031 16.916 78.9347 24.5781 71.6494L21.8219 68.7506C13.2173 76.932 9 88.0303 9 101.8H13ZM24.5787 71.6488C32.3932 64.2124 42.9905 60.4 56.6 60.4V56.4C42.2095 56.4 30.5401 60.4542 21.8213 68.7512L24.5787 71.6488ZM56.6 60.4C70.2095 60.4 80.8068 64.2124 88.6213 71.6488L91.3787 68.7512C82.6599 60.4542 70.9905 56.4 56.6 56.4V60.4ZM88.6454 71.6714C96.5642 78.9617 100.6 88.9232 100.6 101.8H104.6C104.6 88.0102 100.236 76.905 91.3546 68.7286L88.6454 71.6714ZM100.6 101.8V158.2H104.6V101.8H100.6ZM100.6 158.2C100.6 171.215 96.5598 181.391 88.6207 188.952L91.3793 191.848C100.24 183.409 104.6 172.118 104.6 158.2H100.6ZM88.6213 188.951C80.8068 196.388 70.2095 200.2 56.6 200.2V204.2C70.9905 204.2 82.6599 200.146 91.3787 191.849L88.6213 188.951ZM56.6 184C63.939 184 70.0103 181.87 74.5909 177.437L71.8092 174.563C68.1231 178.13 63.1276 180 56.6 180V184ZM74.6142 177.414C79.1915 172.837 81.4 166.758 81.4 159.4H77.4C77.4 165.909 75.4752 170.896 71.7858 174.586L74.6142 177.414ZM81.4 159.4V101H77.4V159.4H81.4ZM81.4 101C81.4 93.6444 79.1918 87.6153 74.5909 83.1628L71.8092 86.0372C75.4749 89.5847 77.4 94.4889 77.4 101H81.4ZM74.6142 83.1858C70.0369 78.6085 63.9577 76.4 56.6 76.4V80.4C63.109 80.4 68.0964 82.3248 71.7858 86.0142L74.6142 83.1858ZM56.6 76.4C49.3632 76.4 43.3556 78.616 38.7858 83.1858L41.6142 86.0142C45.3111 82.3173 50.2368 80.4 56.6 80.4V76.4ZM38.7858 83.1858C34.3294 87.6422 32.2 93.6635 32.2 101H36.2C36.2 94.4698 38.0706 89.5578 41.6142 86.0142L38.7858 83.1858ZM32.2 101V159.4H36.2V101H32.2ZM32.2 159.4C32.2 166.739 34.33 172.81 38.7628 177.391L41.6372 174.609C38.07 170.923 36.2 165.928 36.2 159.4H32.2ZM38.8092 177.437C43.3824 181.863 49.3821 184 56.6 184V180C50.2179 180 45.2843 178.137 41.5908 174.563L38.8092 177.437ZM205.672 133.4L207.518 132.631L207.513 132.618L207.507 132.605L205.672 133.4ZM206.272 175.2L204.412 174.465L204.402 174.489L204.393 174.514L206.272 175.2ZM191.072 194.8L192.152 196.483L192.163 196.476L192.174 196.469L191.072 194.8ZM139.672 194.2L138.521 195.836L138.538 195.848L138.556 195.859L139.672 194.2ZM124.272 173.8L126.154 173.124L126.146 173.101L126.137 173.078L124.272 173.8ZM121.472 157.6H119.472V157.64L119.473 157.68L121.472 157.6ZM144.872 157.6H142.872V157.662L142.876 157.725L144.872 157.6ZM146.872 167.8L148.797 167.258L148.763 167.139L148.715 167.024L146.872 167.8ZM153.472 178L152.23 179.568L152.266 179.596L152.303 179.623L153.472 178ZM183.672 169.6L181.847 168.782L181.836 168.806L181.826 168.831L183.672 169.6ZM183.272 137.8L185.093 136.972L185.089 136.965L185.086 136.958L183.272 137.8ZM156.072 130.6L156.966 132.389L157.092 132.326L157.207 132.246L156.072 130.6ZM152.672 129.8L151.048 130.967L151.09 131.025L151.135 131.08L152.672 129.8ZM143.472 117L141.757 118.029L141.799 118.1L141.848 118.167L143.472 117ZM143.672 113.6L142.271 112.173L142.264 112.179L142.258 112.186L143.672 113.6ZM176.672 81.2L178.073 82.6271L178.08 82.6207L178.086 82.6142L176.672 81.2ZM176.872 80.4L178.661 79.5056V79.5056L176.872 80.4ZM124.272 79.4L122.672 80.6L122.843 80.8286L123.072 81L124.272 79.4ZM124.272 60.8L122.858 59.3858V59.3858L124.272 60.8ZM207.472 60.8L205.872 62L206.043 62.2286L206.272 62.4L207.472 60.8ZM207.072 82.8L205.658 81.3858L205.653 81.3907L207.072 82.8ZM178.472 111.6L179.886 113.014L179.891 113.009L178.472 111.6ZM179.272 112.8L178.787 114.74L178.89 114.766L178.995 114.781L179.272 112.8ZM203.826 134.169C206.373 140.283 207.672 147.348 207.672 155.4H211.672C211.672 146.919 210.304 139.317 207.518 132.631L203.826 134.169ZM207.672 155.4C207.672 162.667 206.569 169.009 204.412 174.465L208.132 175.935C210.508 169.924 211.672 163.067 211.672 155.4H207.672ZM204.393 174.514C201.465 182.536 196.658 188.714 189.97 193.131L192.174 196.469C199.619 191.553 204.946 184.664 208.151 175.886L204.393 174.514ZM189.992 193.117C183.305 197.407 175.163 199.6 165.472 199.6V203.6C175.781 203.6 184.706 201.26 192.152 196.483L189.992 193.117ZM165.472 199.6C155.955 199.6 147.754 197.227 140.788 192.541L138.556 195.859C146.257 201.04 155.256 203.6 165.472 203.6V199.6ZM140.823 192.564C133.97 187.742 129.086 181.282 126.154 173.124L122.39 174.476C125.591 183.385 130.974 190.525 138.521 195.836L140.823 192.564ZM126.137 173.078C124.646 169.226 123.732 164.066 123.47 157.52L119.473 157.68C119.745 164.467 120.698 170.107 122.407 174.522L126.137 173.078ZM123.472 157.6C123.472 157.108 123.593 157.107 123.486 157.214C123.379 157.322 123.38 157.2 123.872 157.2V153.2C122.764 153.2 121.565 153.478 120.658 154.386C119.75 155.293 119.472 156.492 119.472 157.6H123.472ZM123.872 157.2H142.472V153.2H123.872V157.2ZM142.472 157.2C142.964 157.2 142.965 157.322 142.858 157.214C142.75 157.107 142.872 157.108 142.872 157.6H146.872C146.872 156.492 146.593 155.293 145.686 154.386C144.779 153.478 143.58 153.2 142.472 153.2V157.2ZM142.876 157.725C143.15 162.105 143.84 165.754 145.029 168.576L148.715 167.024C147.77 164.779 147.128 161.628 146.868 157.475L142.876 157.725ZM144.947 168.341C146.25 172.977 148.671 176.75 152.23 179.568L154.713 176.432C151.872 174.183 149.893 171.156 148.797 167.258L144.947 168.341ZM152.303 179.623C156.022 182.301 160.445 183.6 165.472 183.6V179.6C161.165 179.6 157.588 178.499 154.64 176.377L152.303 179.623ZM165.472 183.6C170.18 183.6 174.299 182.527 177.723 180.27C181.148 178.011 183.728 174.665 185.518 170.369L181.826 168.831C180.282 172.535 178.162 175.189 175.521 176.93C172.878 178.673 169.564 179.6 165.472 179.6V183.6ZM185.497 170.418C187.385 166.206 188.272 160.899 188.272 154.6H184.272C184.272 160.568 183.425 165.261 181.847 168.782L185.497 170.418ZM188.272 154.6C188.272 147.623 187.249 141.716 185.093 136.972L181.451 138.628C183.295 142.684 184.272 147.977 184.272 154.6H188.272ZM185.086 136.958C183.216 132.931 180.61 129.806 177.228 127.702C173.851 125.6 169.834 124.6 165.272 124.6V128.6C169.243 128.6 172.493 129.466 175.115 131.098C177.733 132.727 179.861 135.202 181.458 138.642L185.086 136.958ZM165.272 124.6C162.35 124.6 158.845 126.258 154.936 128.954L157.207 132.246C161.032 129.609 163.66 128.6 165.272 128.6V124.6ZM155.177 128.811C154.997 128.901 154.864 128.951 154.772 128.977C154.681 129.003 154.651 129 154.672 129V133C155.497 133 156.28 132.732 156.966 132.389L155.177 128.811ZM154.672 129C154.758 129 154.776 129.03 154.701 128.985C154.613 128.932 154.444 128.802 154.208 128.52L151.135 131.08C151.968 132.08 153.144 133 154.672 133V129ZM154.296 128.633L145.096 115.833L141.848 118.167L151.048 130.967L154.296 128.633ZM145.187 115.971C145.028 115.707 144.94 115.518 144.895 115.398C144.846 115.268 144.872 115.282 144.872 115.4H140.872C140.872 116.368 141.316 117.295 141.757 118.029L145.187 115.971ZM144.872 115.4C144.872 115.335 144.874 115.226 145.086 115.014L142.258 112.186C141.403 113.04 140.872 114.132 140.872 115.4H144.872ZM145.073 115.027L178.073 82.6271L175.271 79.7729L142.271 112.173L145.073 115.027ZM178.086 82.6142C178.384 82.3161 178.714 81.8774 178.862 81.2851C179.021 80.648 178.921 80.027 178.661 79.5056L175.083 81.2944C174.956 81.0397 174.889 80.6853 174.982 80.3149C175.063 79.9892 175.226 79.8172 175.258 79.7858L178.086 82.6142ZM178.661 79.5056C178.072 78.3278 176.927 78 176.072 78V82C176.063 82 175.9 82.0001 175.677 81.8889C175.424 81.762 175.21 81.5481 175.083 81.2944L178.661 79.5056ZM176.072 78H126.072V82H176.072V78ZM126.072 78C125.838 78 125.659 77.9404 125.472 77.8L123.072 81C123.951 81.6596 124.972 82 126.072 82V78ZM125.872 78.2C125.732 78.0128 125.672 77.8339 125.672 77.6H121.672C121.672 78.6994 122.012 79.7205 122.672 80.6L125.872 78.2ZM125.672 77.6V62.4H121.672V77.6H125.672ZM125.672 62.4C125.672 62.2664 125.692 62.2096 125.695 62.2022C125.696 62.1982 125.695 62.2007 125.692 62.2065C125.688 62.2123 125.685 62.2152 125.686 62.2142L122.858 59.3858C122.016 60.2273 121.672 61.3048 121.672 62.4H125.672ZM125.686 62.2142C125.898 62.0022 126.007 62 126.072 62V58C124.803 58 123.712 58.5311 122.858 59.3858L125.686 62.2142ZM126.072 62H205.872V58H126.072V62ZM205.872 62C205.905 62 205.917 62.0032 205.913 62.0024C205.911 62.002 205.907 62.0008 205.9 61.9985C205.893 61.9961 205.886 61.9929 205.877 61.9888C205.869 61.9848 205.862 61.9806 205.856 61.9766C205.85 61.9726 205.847 61.9697 205.845 61.9685C205.842 61.9659 205.852 61.9736 205.872 62L209.072 59.6C208.294 58.563 207.168 58 205.872 58V62ZM206.272 62.4C206.298 62.4198 206.306 62.4296 206.303 62.4266C206.302 62.4252 206.299 62.4216 206.295 62.4156C206.291 62.4097 206.287 62.4025 206.283 62.3944C206.279 62.3863 206.276 62.3786 206.273 62.3719C206.271 62.3652 206.27 62.3606 206.27 62.3589C206.269 62.355 206.272 62.3671 206.272 62.4H210.272C210.272 61.1038 209.709 59.9777 208.672 59.2L206.272 62.4ZM206.272 62.4V79.8H210.272V62.4H206.272ZM206.272 79.8C206.272 80.5053 206.058 80.9854 205.658 81.3858L208.486 84.2142C209.686 83.0146 210.272 81.4947 210.272 79.8H206.272ZM205.653 81.3907L177.053 110.191L179.891 113.009L208.491 84.2093L205.653 81.3907ZM177.058 110.186C176.805 110.438 176.463 110.85 176.299 111.426C176.106 112.1 176.212 112.816 176.608 113.409C176.946 113.916 177.406 114.203 177.727 114.364C178.07 114.535 178.439 114.653 178.787 114.74L179.757 110.86C179.572 110.813 179.507 110.781 179.516 110.786C179.525 110.79 179.574 110.816 179.645 110.871C179.716 110.927 179.828 111.029 179.936 111.191C180.198 111.584 180.271 112.083 180.145 112.524C180.093 112.706 180.02 112.833 179.973 112.903C179.926 112.974 179.89 113.01 179.886 113.014L177.058 110.186ZM178.995 114.781C190.668 116.412 198.899 122.8 203.837 134.195L207.507 132.605C202.045 120 192.676 112.654 179.549 110.819L178.995 114.781Z" fill="#B4977B"/>
</svg>
